<?xml version="1.0" encoding="UTF-8"?>
<svg xmlns="http://www.w3.org/2000/svg" xmlns:xlink="http://www.w3.org/1999/xlink" width="600pt" height="450pt" viewBox="0 0 600 450" version="1.1">
<g id="surface1-WXT5oZW8">
<rect x="0" y="0" width="600" height="450" style="fill:rgb(100%,100%,100%);fill-opacity:1;stroke:none;"/>
<path style=" stroke:none;fill-rule:nonzero;fill:rgb(100%,100%,100%);fill-opacity:1;" d="M 12 438 L 588 438 L 588 12 L 12 12 Z M 12 438 "/>
<path style="fill:none;stroke-width:1.5;stroke-linecap:butt;stroke-linejoin:miter;stroke:rgb(0%,0%,0%);stroke-opacity:1;stroke-miterlimit:2;" d="M 362.5625 68.807292 L 440.9375 280.057292 " transform="matrix(0.75,0,0,0.75,0,0)"/>
<path style="fill:none;stroke-width:1.5;stroke-linecap:butt;stroke-linejoin:miter;stroke:rgb(0%,0%,0%);stroke-opacity:1;stroke-miterlimit:2;" d="M 362.5625 68.807292 L 109.182292 167.239583 " transform="matrix(0.75,0,0,0.75,0,0)"/>
<path style="fill:none;stroke-width:1.5;stroke-linecap:butt;stroke-linejoin:miter;stroke:rgb(0%,0%,0%);stroke-opacity:1;stroke-miterlimit:2;" d="M 362.5625 68.807292 L 663.708333 188.5625 " transform="matrix(0.75,0,0,0.75,0,0)"/>
<path style="fill:none;stroke-width:1.5;stroke-linecap:butt;stroke-linejoin:miter;stroke:rgb(0%,0%,0%);stroke-opacity:1;stroke-miterlimit:2;" d="M 440.9375 280.057292 L 109.182292 167.239583 " transform="matrix(0.75,0,0,0.75,0,0)"/>
<path style="fill:none;stroke-width:1.5;stroke-linecap:butt;stroke-linejoin:miter;stroke:rgb(0%,0%,0%);stroke-opacity:1;stroke-miterlimit:2;" d="M 440.9375 280.057292 L 663.708333 188.5625 " transform="matrix(0.75,0,0,0.75,0,0)"/>
<path style="fill:none;stroke-width:1.5;stroke-linecap:butt;stroke-linejoin:miter;stroke:rgb(0%,0%,0%);stroke-opacity:1;stroke-miterlimit:2;" d="M 440.9375 280.057292 L 50.911458 349.265625 " transform="matrix(0.75,0,0,0.75,0,0)"/>
<path style="fill:none;stroke-width:1.5;stroke-linecap:butt;stroke-linejoin:miter;stroke:rgb(0%,0%,0%);stroke-opacity:1;stroke-miterlimit:2;" d="M 440.9375 280.057292 L 726.848958 409.052083 " transform="matrix(0.75,0,0,0.75,0,0)"/>
<path style="fill:none;stroke-width:1.5;stroke-linecap:butt;stroke-linejoin:miter;stroke:rgb(0%,0%,0%);stroke-opacity:1;stroke-miterlimit:2;" d="M 440.9375 280.057292 L 749.088542 41.817708 " transform="matrix(0.75,0,0,0.75,0,0)"/>
<path style="fill:none;stroke-width:1.5;stroke-linecap:butt;stroke-linejoin:miter;stroke:rgb(0%,0%,0%);stroke-opacity:1;stroke-miterlimit:2;" d="M 440.9375 280.057292 L 565.71875 558.182292 " transform="matrix(0.75,0,0,0.75,0,0)"/>
<path style="fill:none;stroke-width:1.5;stroke-linecap:butt;stroke-linejoin:miter;stroke:rgb(0%,0%,0%);stroke-opacity:1;stroke-miterlimit:2;" d="M 109.182292 167.239583 L 50.911458 349.265625 " transform="matrix(0.75,0,0,0.75,0,0)"/>
<path style="fill:none;stroke-width:1.5;stroke-linecap:butt;stroke-linejoin:miter;stroke:rgb(0%,0%,0%);stroke-opacity:1;stroke-miterlimit:2;" d="M 663.708333 188.5625 L 726.848958 409.052083 " transform="matrix(0.75,0,0,0.75,0,0)"/>
<path style="fill:none;stroke-width:1.5;stroke-linecap:butt;stroke-linejoin:miter;stroke:rgb(0%,0%,0%);stroke-opacity:1;stroke-miterlimit:2;" d="M 663.708333 188.5625 L 749.088542 41.817708 " transform="matrix(0.75,0,0,0.75,0,0)"/>
<path style="fill:none;stroke-width:1.5;stroke-linecap:butt;stroke-linejoin:miter;stroke:rgb(0%,0%,0%);stroke-opacity:1;stroke-miterlimit:2;" d="M 726.848958 409.052083 L 565.71875 558.182292 " transform="matrix(0.75,0,0,0.75,0,0)"/>
<path style=" stroke:none;fill-rule:nonzero;fill:rgb(0%,0%,0%);fill-opacity:1;" d="M 280.382812 51.605469 C 280.382812 46.933594 276.59375 43.148438 271.921875 43.148438 C 267.25 43.148438 263.460938 46.933594 263.460938 51.605469 C 263.460938 56.277344 267.25 60.066406 271.921875 60.066406 C 276.59375 60.066406 280.382812 56.277344 280.382812 51.605469 Z M 280.382812 51.605469 "/>
<path style=" stroke:none;fill-rule:nonzero;fill:rgb(0%,0%,0%);fill-opacity:1;" d="M 339.164062 210.042969 C 339.164062 205.371094 335.375 201.582031 330.703125 201.582031 C 326.03125 201.582031 322.242188 205.371094 322.242188 210.042969 C 322.242188 214.714844 326.03125 218.5 330.703125 218.5 C 335.375 218.5 339.164062 214.714844 339.164062 210.042969 Z M 339.164062 210.042969 "/>
<path style=" stroke:none;fill-rule:nonzero;fill:rgb(0%,0%,0%);fill-opacity:1;" d="M 90.34375 125.429688 C 90.34375 120.757812 86.558594 116.96875 81.886719 116.96875 C 77.210938 116.96875 73.425781 120.757812 73.425781 125.429688 C 73.425781 130.101562 77.210938 133.890625 81.886719 133.890625 C 86.558594 133.890625 90.34375 130.101562 90.34375 125.429688 Z M 90.34375 125.429688 "/>
<path style=" stroke:none;fill-rule:nonzero;fill:rgb(0%,0%,0%);fill-opacity:1;" d="M 506.242188 141.421875 C 506.242188 136.75 502.453125 132.960938 497.78125 132.960938 C 493.109375 132.960938 489.320312 136.75 489.320312 141.421875 C 489.320312 146.09375 493.109375 149.878906 497.78125 149.878906 C 502.453125 149.878906 506.242188 146.09375 506.242188 141.421875 Z M 506.242188 141.421875 "/>
<path style=" stroke:none;fill-rule:nonzero;fill:rgb(0%,0%,0%);fill-opacity:1;" d="M 46.640625 261.949219 C 46.640625 257.277344 42.855469 253.492188 38.183594 253.492188 C 33.507812 253.492188 29.722656 257.277344 29.722656 261.949219 C 29.722656 266.625 33.507812 270.410156 38.183594 270.410156 C 42.855469 270.410156 46.640625 266.625 46.640625 261.949219 Z M 46.640625 261.949219 "/>
<path style=" stroke:none;fill-rule:nonzero;fill:rgb(0%,0%,0%);fill-opacity:1;" d="M 553.597656 306.789062 C 553.597656 302.117188 549.808594 298.332031 545.136719 298.332031 C 540.464844 298.332031 536.675781 302.117188 536.675781 306.789062 C 536.675781 311.460938 540.464844 315.25 545.136719 315.25 C 549.808594 315.25 553.597656 311.460938 553.597656 306.789062 Z M 553.597656 306.789062 "/>
<path style=" stroke:none;fill-rule:nonzero;fill:rgb(0%,0%,0%);fill-opacity:1;" d="M 570.277344 31.363281 C 570.277344 26.691406 566.492188 22.902344 561.816406 22.902344 C 557.144531 22.902344 553.359375 26.691406 553.359375 31.363281 C 553.359375 36.035156 557.144531 39.824219 561.816406 39.824219 C 566.492188 39.824219 570.277344 36.035156 570.277344 31.363281 Z M 570.277344 31.363281 "/>
<path style=" stroke:none;fill-rule:nonzero;fill:rgb(0%,0%,0%);fill-opacity:1;" d="M 432.75 418.636719 C 432.75 413.964844 428.960938 410.175781 424.289062 410.175781 C 419.617188 410.175781 415.828125 413.964844 415.828125 418.636719 C 415.828125 423.308594 419.617188 427.097656 424.289062 427.097656 C 428.960938 427.097656 432.75 423.308594 432.75 418.636719 Z M 432.75 418.636719 "/>
</g>
</svg>
